<?xml version="1.0" standalone="no"?>
<svg viewBox="0 0 200 200" xmlns="http://www.w3.org/2000/svg">
  <path fill="#D0E2FF" d="M41.5,-74.1C52.5,-65.6,59.3,-51.8,67.7,-38.6C76.1,-25.4,86.3,-12.7,88.1,1C89.9,14.8,83.4,29.6,74.6,42.2C65.8,54.7,54.7,65.1,41.9,72.8C29,80.5,14.5,85.6,0.5,84.7C-13.5,83.8,-26.9,76.9,-40.5,69.6C-54.1,62.3,-67.8,54.7,-76.6,43.1C-85.3,31.4,-89,15.7,-87,1.2C-85,-13.4,-77.2,-26.7,-68.9,-39.1C-60.6,-51.5,-51.8,-62.9,-40.2,-71.2C-28.6,-79.4,-14.3,-84.4,0.5,-85.2C15.3,-86,30.5,-82.7,41.5,-74.1Z" transform="translate(100 100)" />
</svg>
